<?xml version="1.0" encoding="UTF-8" standalone="no"?>
<svg
   xmlns:dc="http://purl.org/dc/elements/1.1/"
   xmlns:cc="http://creativecommons.org/ns#"
   xmlns:rdf="http://www.w3.org/1999/02/22-rdf-syntax-ns#"
   xmlns:svg="http://www.w3.org/2000/svg"
   xmlns="http://www.w3.org/2000/svg"
   style="fill:none"
   height="20.648396"
   width="20.651201"
   id="svg3741"
   version="1.1"
   viewBox="0 0 20.651201 20.648396">
  <metadata
     id="metadata3747">
    <rdf:RDF>
      <cc:Work
         rdf:about="">
        <dc:format>image/svg+xml</dc:format>
        <dc:type
           rdf:resource="http://purl.org/dc/dcmitype/StillImage" />
        <dc:title></dc:title>
      </cc:Work>
    </rdf:RDF>
  </metadata>
  <defs
     id="defs3745" />
  <path
     style="fill:#f6ea74"
     id="path3731"
     d="M 5.0384,5.038768 C 5.2651,3.889928 5.5716,2.826688 5.9523,1.893008 6.145,1.419218 6.3542,0.988288 6.5781,0.598267 3.8079,1.606138 1.6062,3.807478 0.5983,6.578258 0.988,6.353928 1.4195,6.145718 1.8931,5.952828 2.8269,5.571758 3.8894,5.265678 5.0384,5.038768 Z" />
  <path
     style="fill:#f6ea74"
     id="path3733"
     d="M 11.2526,0.816188 C 10.8217,0.281759 10.3806,0 9.982,0 9.2251,0 8.3137,1.018658 7.6099,2.855968 c 0.8933,-0.64458 1.8398,-1.21694 2.8375,-1.68613 0.2612,-0.12255 0.5307,-0.24103 0.8052,-0.35365 z" />
  <path
     style="fill:#f6ea74"
     id="path3735"
     d="m 14.926,14.926138 c -0.2269,1.1493 -0.5331,2.2114 -0.914,3.1451 -0.193,0.4737 -0.402,0.9058 -0.6256,1.2946 2.77,-1.0079 4.9715,-3.2094 5.9796,-5.9795 -0.3895,0.2237 -0.8212,0.4335 -1.2947,0.6261 -0.9338,0.3805 -1.9964,0.6875 -3.1453,0.9137 z" />
  <path
     style="fill:#f6ea74"
     id="path3737"
     d="m 1.0085,10.806638 c 0.4941,-1.1236 1.117,-2.19163 1.8369,-3.1925 -1.8301,0.70322 -2.8441,1.61201 -2.8454,2.3674 0,4e-4 0,8e-4 0,0.0012 0,4e-4 0,8e-4 0,0.0012 7e-4,0.3989 0.2833,0.8404 0.8192,1.2709 0.0614,-0.1511 0.1246,-0.3005 0.1893,-0.4482 z" />
  <path
     style="fill:#f6ea74"
     id="path3739"
     d="m 20.5433,3.975178 c -0.3221,-1.63243 -1.5303,-2.81248 -3.1354,-3.21306 -2.1133,-0.527141 -4.4155,0.13563 -6.3314,1.0369 -1.5455,0.72824 -2.9708,1.69911 -4.2619,2.81381 -2.1651,1.87081 -4.0207,4.19603 -5.177,6.82281 -0.8487,1.9279 -1.457,4.2776 -0.7683,6.3477 0.274,0.8217 0.7696,1.5558 1.4742,2.0653 0.8661,0.6256 1.9482,0.8427 3.0015,0.7929 1.3304,-0.0628 2.6132,-0.4649 3.8213,-1.027 0.2805,0.2304 0.5576,0.3495 0.8158,0.3495 0.9853,0 2.2321,-1.7211 2.942,-4.7342 -0.9498,0.103 -1.9364,0.1581 -2.942,0.1581 -1.0057,0 -1.992,-0.0551 -2.9418,-0.1581 0.4761,2.0209 1.1942,3.4605 1.9124,4.1892 -0.7005,0.2535 -1.4239,0.444 -2.1698,0.5566 -1.7452,0.2612 -3.8951,-0.0832 -4.6459,-1.9047 -0.2914,-0.7055 -0.3328,-1.486 -0.2437,-2.2467 1.1284,1.5573 2.6955,2.7781 4.5184,3.4784 0.0396,-0.0069 0.0789,-0.014 0.1179,-0.0213 -0.2053,-0.3673 -0.3986,-0.7708 -0.5773,-1.2102 -0.3807,-0.9337 -0.6873,-1.9958 -0.9139,-3.1451 -0.9962,-0.196 -1.9269,-0.4525 -2.7652,-0.7653 0.1945,-0.6021 0.4405,-1.1872 0.7225,-1.7544 0.5186,0.1916 1.0994,0.3676 1.7391,0.5176 -0.1029,-0.9499 -0.158,-1.9355 -0.158,-2.9412 0,-0.0561 9e-4,-0.1115 0.0012,-0.1664 0.6166,-0.85005 1.2969,-1.6519 2.0255,-2.40865 -0.0803,0.80311 -0.1253,1.66302 -0.1253,2.57505 0,1.1905 0.076,2.292 0.2083,3.2955 1.0034,0.1324 2.105,0.2075 3.2955,0.2075 1.1906,0 2.2921,-0.0752 3.2958,-0.2075 0.132,-1.0035 0.2081,-2.105 0.2081,-3.2955 0,-1.19069 -0.0761,-2.29208 -0.2081,-3.29582 -1.0037,-0.13219 -2.1052,-0.20896 -3.2958,-0.20896 -0.9102,0 -1.7674,0.04562 -2.5703,0.12479 0.4171,-0.3961 0.8453,-0.78148 1.284,-1.15216 0.3575,-0.3027 0.7281,-0.59341 1.1102,-0.87184 0.0586,-3.5e-4 0.117,-0.00121 0.1761,-0.00121 1.0057,0 1.9922,0.05468 2.942,0.15795 -0.1501,-0.63782 -0.3253,-1.21746 -0.5163,-1.73444 0.2275,-0.11234 0.4569,-0.21802 0.6878,-0.31751 0.3478,-0.15008 0.7041,-0.28766 1.0665,-0.40471 0.312,0.83633 0.5677,1.76606 0.764,2.75993 1.1489,0.22691 2.2115,0.533 3.1453,0.91407 0.4384,0.17768 0.8403,0.3704 1.2071,0.57602 0.0073,-0.04056 0.0145,-0.08261 0.0221,-0.12329 -0.6989,-1.81373 -1.9114,-3.37238 -3.4595,-4.49873 0.1481,-0.01693 0.2973,-0.02794 0.4465,-0.03368 0.9686,-0.03873 1.8509,0.18727 2.6152,0.79152 -0.0019,-0.0035 -0.005,-0.0066 -0.0085,-0.00924 0.1683,0.18136 0.3381,0.34728 0.4819,0.55027 0.3222,0.45835 0.5006,0.99708 0.5954,1.54408 0.1857,1.07385 0.0287,2.19371 -0.2571,3.23514 -0.0883,0.32405 -0.1927,0.64235 -0.3076,0.95676 -0.7331,-0.71493 -2.1673,-1.42796 -4.1775,-1.90135 0.1032,0.94976 0.1581,1.93692 0.1581,2.94251 0,1.0057 -0.0549,1.9913 -0.1581,2.9413 3.0119,-0.7088 4.7333,-1.9556 4.735,-2.9401 0,-4e-4 0,-8e-4 0,-0.0011 0,-4e-4 0,-9e-4 0,-0.0012 -5e-4,-0.259 -0.1206,-0.53587 -0.3511,-0.81642 0.7429,-1.60369 1.2761,-3.43997 0.9301,-5.19014 z" />
</svg>
